<mxfile host="app.diagrams.net" agent="Mozilla/5.0 (Windows NT 10.0; Win64; x64) AppleWebKit/537.36 (KHTML, like Gecko) Chrome/128.0.0.0 Safari/537.36 OPR/114.0.0.0" version="24.8.6">
  <diagram id="C5RBs43oDa-KdzZeNtuy" name="Page-1">
    <mxGraphModel dx="1257" dy="1044" grid="0" gridSize="10" guides="1" tooltips="1" connect="1" arrows="1" fold="1" page="0" pageScale="1" pageWidth="827" pageHeight="1169" background="#FFFFFF" math="0" shadow="0">
      <root>
        <mxCell id="WIyWlLk6GJQsqaUBKTNV-0" />
        <mxCell id="WIyWlLk6GJQsqaUBKTNV-1" parent="WIyWlLk6GJQsqaUBKTNV-0" />
        <mxCell id="eJlzGwfbYKm2t7pgXUtI-9" style="edgeStyle=orthogonalEdgeStyle;rounded=0;orthogonalLoop=1;jettySize=auto;html=1;entryX=0.5;entryY=0;entryDx=0;entryDy=0;fontColor=#000000;strokeColor=#000000;" parent="WIyWlLk6GJQsqaUBKTNV-1" source="eJlzGwfbYKm2t7pgXUtI-0" target="eJlzGwfbYKm2t7pgXUtI-3" edge="1">
          <mxGeometry relative="1" as="geometry" />
        </mxCell>
        <mxCell id="eJlzGwfbYKm2t7pgXUtI-0" value="Start" style="ellipse;whiteSpace=wrap;html=1;fillColor=#3399FF;fontColor=#000000;strokeColor=#000000;" parent="WIyWlLk6GJQsqaUBKTNV-1" vertex="1">
          <mxGeometry x="170" y="70" width="120" height="80" as="geometry" />
        </mxCell>
        <mxCell id="eJlzGwfbYKm2t7pgXUtI-8" style="edgeStyle=orthogonalEdgeStyle;rounded=0;orthogonalLoop=1;jettySize=auto;html=1;fontColor=#000000;strokeColor=#000000;" parent="WIyWlLk6GJQsqaUBKTNV-1" source="eJlzGwfbYKm2t7pgXUtI-3" target="eJlzGwfbYKm2t7pgXUtI-5" edge="1">
          <mxGeometry relative="1" as="geometry" />
        </mxCell>
        <mxCell id="eJlzGwfbYKm2t7pgXUtI-3" value="Login" style="rounded=0;whiteSpace=wrap;html=1;fillColor=#3399FF;fontColor=#000000;strokeColor=#000000;" parent="WIyWlLk6GJQsqaUBKTNV-1" vertex="1">
          <mxGeometry x="170" y="190" width="120" height="60" as="geometry" />
        </mxCell>
        <mxCell id="eJlzGwfbYKm2t7pgXUtI-7" style="edgeStyle=orthogonalEdgeStyle;rounded=0;orthogonalLoop=1;jettySize=auto;html=1;entryX=0.5;entryY=0;entryDx=0;entryDy=0;fontColor=#000000;strokeColor=#000000;" parent="WIyWlLk6GJQsqaUBKTNV-1" source="eJlzGwfbYKm2t7pgXUtI-5" target="eJlzGwfbYKm2t7pgXUtI-6" edge="1">
          <mxGeometry relative="1" as="geometry" />
        </mxCell>
        <mxCell id="eJlzGwfbYKm2t7pgXUtI-5" value="Mahasiswa input&amp;nbsp;&lt;div&gt;proposal skripsi&lt;/div&gt;" style="shape=parallelogram;perimeter=parallelogramPerimeter;whiteSpace=wrap;html=1;fixedSize=1;fillColor=#3399FF;fontColor=#000000;strokeColor=#000000;" parent="WIyWlLk6GJQsqaUBKTNV-1" vertex="1">
          <mxGeometry x="165" y="320" width="130" height="60" as="geometry" />
        </mxCell>
        <mxCell id="eJlzGwfbYKm2t7pgXUtI-11" style="edgeStyle=orthogonalEdgeStyle;rounded=0;orthogonalLoop=1;jettySize=auto;html=1;fontColor=#000000;strokeColor=#000000;" parent="WIyWlLk6GJQsqaUBKTNV-1" source="eJlzGwfbYKm2t7pgXUtI-6" target="eJlzGwfbYKm2t7pgXUtI-10" edge="1">
          <mxGeometry relative="1" as="geometry" />
        </mxCell>
        <mxCell id="eJlzGwfbYKm2t7pgXUtI-6" value="Proposal diperiksa oleh dosen reviewer" style="rounded=0;whiteSpace=wrap;html=1;fillColor=#3399FF;fontColor=#000000;strokeColor=#000000;" parent="WIyWlLk6GJQsqaUBKTNV-1" vertex="1">
          <mxGeometry x="170" y="460" width="120" height="60" as="geometry" />
        </mxCell>
        <mxCell id="eJlzGwfbYKm2t7pgXUtI-14" style="edgeStyle=orthogonalEdgeStyle;rounded=0;orthogonalLoop=1;jettySize=auto;html=1;entryX=0;entryY=0.5;entryDx=0;entryDy=0;fontColor=#000000;strokeColor=#000000;" parent="WIyWlLk6GJQsqaUBKTNV-1" source="eJlzGwfbYKm2t7pgXUtI-10" target="eJlzGwfbYKm2t7pgXUtI-12" edge="1">
          <mxGeometry relative="1" as="geometry" />
        </mxCell>
        <mxCell id="eJlzGwfbYKm2t7pgXUtI-45" value="Yes" style="edgeLabel;html=1;align=center;verticalAlign=middle;resizable=0;points=[];fontColor=#000000;labelBackgroundColor=none;" parent="eJlzGwfbYKm2t7pgXUtI-14" vertex="1" connectable="0">
          <mxGeometry x="-0.8759" y="-1" relative="1" as="geometry">
            <mxPoint x="-17" y="-13" as="offset" />
          </mxGeometry>
        </mxCell>
        <mxCell id="eJlzGwfbYKm2t7pgXUtI-16" style="edgeStyle=orthogonalEdgeStyle;rounded=0;orthogonalLoop=1;jettySize=auto;html=1;fontColor=#000000;strokeColor=#000000;entryX=0;entryY=0.5;entryDx=0;entryDy=0;" parent="WIyWlLk6GJQsqaUBKTNV-1" source="eJlzGwfbYKm2t7pgXUtI-10" target="eJlzGwfbYKm2t7pgXUtI-5" edge="1">
          <mxGeometry relative="1" as="geometry">
            <mxPoint x="144" y="387" as="targetPoint" />
            <Array as="points">
              <mxPoint x="147" y="655" />
              <mxPoint x="147" y="350" />
            </Array>
          </mxGeometry>
        </mxCell>
        <mxCell id="eJlzGwfbYKm2t7pgXUtI-35" value="No" style="edgeLabel;html=1;align=center;verticalAlign=middle;resizable=0;points=[];fontColor=#000000;labelBackgroundColor=none;" parent="eJlzGwfbYKm2t7pgXUtI-16" vertex="1" connectable="0">
          <mxGeometry x="0.1211" y="2" relative="1" as="geometry">
            <mxPoint x="-17" y="17" as="offset" />
          </mxGeometry>
        </mxCell>
        <mxCell id="eJlzGwfbYKm2t7pgXUtI-10" value="Apakah&amp;nbsp;&lt;div&gt;proposal skripsi&lt;div&gt;diterima?&lt;/div&gt;&lt;/div&gt;" style="rhombus;whiteSpace=wrap;html=1;fillColor=#3399FF;fontColor=#000000;strokeColor=#000000;" parent="WIyWlLk6GJQsqaUBKTNV-1" vertex="1">
          <mxGeometry x="163.75" y="590" width="132.5" height="130" as="geometry" />
        </mxCell>
        <mxCell id="eJlzGwfbYKm2t7pgXUtI-19" style="edgeStyle=orthogonalEdgeStyle;rounded=0;orthogonalLoop=1;jettySize=auto;html=1;entryX=0.5;entryY=0;entryDx=0;entryDy=0;fontColor=#000000;strokeColor=#000000;" parent="WIyWlLk6GJQsqaUBKTNV-1" source="eJlzGwfbYKm2t7pgXUtI-12" target="eJlzGwfbYKm2t7pgXUtI-18" edge="1">
          <mxGeometry relative="1" as="geometry" />
        </mxCell>
        <mxCell id="eJlzGwfbYKm2t7pgXUtI-12" value="Mahasiswa memilih dosen pembimbing" style="rounded=0;whiteSpace=wrap;html=1;fillColor=#3399FF;fontColor=#000000;strokeColor=#000000;" parent="WIyWlLk6GJQsqaUBKTNV-1" vertex="1">
          <mxGeometry x="414" y="70" width="120" height="60" as="geometry" />
        </mxCell>
        <mxCell id="eJlzGwfbYKm2t7pgXUtI-20" style="edgeStyle=orthogonalEdgeStyle;rounded=0;orthogonalLoop=1;jettySize=auto;html=1;entryX=1;entryY=0.5;entryDx=0;entryDy=0;fontColor=#000000;strokeColor=#000000;" parent="WIyWlLk6GJQsqaUBKTNV-1" source="eJlzGwfbYKm2t7pgXUtI-18" target="eJlzGwfbYKm2t7pgXUtI-12" edge="1">
          <mxGeometry relative="1" as="geometry">
            <Array as="points">
              <mxPoint x="593" y="230" />
              <mxPoint x="593" y="100" />
            </Array>
          </mxGeometry>
        </mxCell>
        <mxCell id="eJlzGwfbYKm2t7pgXUtI-36" value="No" style="edgeLabel;html=1;align=center;verticalAlign=middle;resizable=0;points=[];labelBackgroundColor=none;fontColor=#000000;" parent="eJlzGwfbYKm2t7pgXUtI-20" vertex="1" connectable="0">
          <mxGeometry x="0.1176" y="3" relative="1" as="geometry">
            <mxPoint x="-13" y="17" as="offset" />
          </mxGeometry>
        </mxCell>
        <mxCell id="eJlzGwfbYKm2t7pgXUtI-24" style="edgeStyle=orthogonalEdgeStyle;rounded=0;orthogonalLoop=1;jettySize=auto;html=1;exitX=0.5;exitY=1;exitDx=0;exitDy=0;entryX=0.5;entryY=0;entryDx=0;entryDy=0;fontColor=#000000;strokeColor=#000000;" parent="WIyWlLk6GJQsqaUBKTNV-1" source="eJlzGwfbYKm2t7pgXUtI-18" target="eJlzGwfbYKm2t7pgXUtI-23" edge="1">
          <mxGeometry relative="1" as="geometry" />
        </mxCell>
        <mxCell id="eJlzGwfbYKm2t7pgXUtI-46" value="Yes" style="edgeLabel;html=1;align=center;verticalAlign=middle;resizable=0;points=[];labelBackgroundColor=none;fontColor=#000000;" parent="eJlzGwfbYKm2t7pgXUtI-24" vertex="1" connectable="0">
          <mxGeometry x="-0.5" y="3" relative="1" as="geometry">
            <mxPoint x="-20" y="12" as="offset" />
          </mxGeometry>
        </mxCell>
        <mxCell id="eJlzGwfbYKm2t7pgXUtI-18" value="Apakah kuota&amp;nbsp;&lt;div&gt;dosen&amp;nbsp;&lt;div&gt;memenuhi?&lt;/div&gt;&lt;/div&gt;" style="rhombus;whiteSpace=wrap;html=1;fillColor=#3399FF;fontColor=#000000;strokeColor=#000000;" parent="WIyWlLk6GJQsqaUBKTNV-1" vertex="1">
          <mxGeometry x="413" y="170" width="121" height="120" as="geometry" />
        </mxCell>
        <mxCell id="eJlzGwfbYKm2t7pgXUtI-26" style="edgeStyle=orthogonalEdgeStyle;rounded=0;orthogonalLoop=1;jettySize=auto;html=1;fontColor=#000000;strokeColor=#000000;" parent="WIyWlLk6GJQsqaUBKTNV-1" source="eJlzGwfbYKm2t7pgXUtI-23" target="eJlzGwfbYKm2t7pgXUtI-25" edge="1">
          <mxGeometry relative="1" as="geometry" />
        </mxCell>
        <mxCell id="eJlzGwfbYKm2t7pgXUtI-23" value="Melakukan bimbingan&lt;div&gt;skripsi&lt;/div&gt;" style="rounded=0;whiteSpace=wrap;html=1;fillColor=#3399FF;fontColor=#000000;strokeColor=#000000;" parent="WIyWlLk6GJQsqaUBKTNV-1" vertex="1">
          <mxGeometry x="405.5" y="360" width="136" height="60" as="geometry" />
        </mxCell>
        <mxCell id="eJlzGwfbYKm2t7pgXUtI-30" style="edgeStyle=orthogonalEdgeStyle;rounded=0;orthogonalLoop=1;jettySize=auto;html=1;entryX=0.5;entryY=0;entryDx=0;entryDy=0;fontColor=#000000;strokeColor=#000000;" parent="WIyWlLk6GJQsqaUBKTNV-1" source="eJlzGwfbYKm2t7pgXUtI-25" target="eJlzGwfbYKm2t7pgXUtI-28" edge="1">
          <mxGeometry relative="1" as="geometry" />
        </mxCell>
        <mxCell id="eJlzGwfbYKm2t7pgXUtI-25" value="Mahasiswa mengumpulkan laporan softcover skripsi" style="shape=parallelogram;perimeter=parallelogramPerimeter;whiteSpace=wrap;html=1;fixedSize=1;fillColor=#3399FF;fontColor=#000000;strokeColor=#000000;" parent="WIyWlLk6GJQsqaUBKTNV-1" vertex="1">
          <mxGeometry x="381.5" y="480" width="185" height="60" as="geometry" />
        </mxCell>
        <mxCell id="eJlzGwfbYKm2t7pgXUtI-32" style="edgeStyle=orthogonalEdgeStyle;rounded=0;orthogonalLoop=1;jettySize=auto;html=1;fontColor=#000000;strokeColor=#000000;" parent="WIyWlLk6GJQsqaUBKTNV-1" source="eJlzGwfbYKm2t7pgXUtI-28" target="eJlzGwfbYKm2t7pgXUtI-31" edge="1">
          <mxGeometry relative="1" as="geometry" />
        </mxCell>
        <mxCell id="eJlzGwfbYKm2t7pgXUtI-28" value="Pengecekan laporan softcover skripsi dari dosen pembimbing dan staff" style="rounded=0;whiteSpace=wrap;html=1;fillColor=#3399FF;fontColor=#000000;strokeColor=#000000;" parent="WIyWlLk6GJQsqaUBKTNV-1" vertex="1">
          <mxGeometry x="393.5" y="600" width="160" height="60" as="geometry" />
        </mxCell>
        <mxCell id="eJlzGwfbYKm2t7pgXUtI-74" style="edgeStyle=orthogonalEdgeStyle;rounded=0;orthogonalLoop=1;jettySize=auto;html=1;entryX=1;entryY=0.25;entryDx=0;entryDy=0;strokeColor=#000000;fontColor=#000000;" parent="WIyWlLk6GJQsqaUBKTNV-1" source="eJlzGwfbYKm2t7pgXUtI-31" target="eJlzGwfbYKm2t7pgXUtI-25" edge="1">
          <mxGeometry relative="1" as="geometry">
            <mxPoint x="635.8571428571429" y="608.8571428571429" as="targetPoint" />
            <Array as="points">
              <mxPoint x="600" y="785" />
              <mxPoint x="600" y="496" />
            </Array>
          </mxGeometry>
        </mxCell>
        <mxCell id="eJlzGwfbYKm2t7pgXUtI-75" value="No" style="edgeLabel;html=1;align=center;verticalAlign=middle;resizable=0;points=[];labelBackgroundColor=none;fontColor=#000000;" parent="eJlzGwfbYKm2t7pgXUtI-74" vertex="1" connectable="0">
          <mxGeometry x="0.0222" y="4" relative="1" as="geometry">
            <mxPoint x="-10" y="2" as="offset" />
          </mxGeometry>
        </mxCell>
        <mxCell id="75-wbaEFGfFQ8TanxGVA-2" style="edgeStyle=orthogonalEdgeStyle;rounded=0;orthogonalLoop=1;jettySize=auto;html=1;entryX=0;entryY=0.5;entryDx=0;entryDy=0;" edge="1" parent="WIyWlLk6GJQsqaUBKTNV-1" source="eJlzGwfbYKm2t7pgXUtI-31" target="75-wbaEFGfFQ8TanxGVA-0">
          <mxGeometry relative="1" as="geometry">
            <Array as="points">
              <mxPoint x="474" y="878" />
              <mxPoint x="684" y="878" />
              <mxPoint x="684" y="101" />
            </Array>
          </mxGeometry>
        </mxCell>
        <mxCell id="75-wbaEFGfFQ8TanxGVA-5" value="Yes" style="edgeLabel;html=1;align=center;verticalAlign=middle;resizable=0;points=[];" vertex="1" connectable="0" parent="75-wbaEFGfFQ8TanxGVA-2">
          <mxGeometry x="-0.6175" y="3" relative="1" as="geometry">
            <mxPoint x="6" y="-8" as="offset" />
          </mxGeometry>
        </mxCell>
        <mxCell id="eJlzGwfbYKm2t7pgXUtI-31" value="Apakah laporan softcover diterima?" style="rhombus;whiteSpace=wrap;html=1;fillColor=#3399FF;fontColor=#000000;strokeColor=#000000;" parent="WIyWlLk6GJQsqaUBKTNV-1" vertex="1">
          <mxGeometry x="405.5" y="720" width="136" height="130" as="geometry" />
        </mxCell>
        <mxCell id="eJlzGwfbYKm2t7pgXUtI-53" style="edgeStyle=orthogonalEdgeStyle;rounded=0;orthogonalLoop=1;jettySize=auto;html=1;strokeColor=#000000;fontColor=#000000;" parent="WIyWlLk6GJQsqaUBKTNV-1" source="eJlzGwfbYKm2t7pgXUtI-49" target="eJlzGwfbYKm2t7pgXUtI-50" edge="1">
          <mxGeometry relative="1" as="geometry" />
        </mxCell>
        <mxCell id="eJlzGwfbYKm2t7pgXUtI-49" value="Pengecekan jadwal oleh mahasiswa dan dosen" style="rounded=0;whiteSpace=wrap;html=1;fillColor=#3399FF;fontColor=#000000;strokeColor=#000000;" parent="WIyWlLk6GJQsqaUBKTNV-1" vertex="1">
          <mxGeometry x="760" y="190" width="150" height="60" as="geometry" />
        </mxCell>
        <mxCell id="eJlzGwfbYKm2t7pgXUtI-52" style="edgeStyle=orthogonalEdgeStyle;rounded=0;orthogonalLoop=1;jettySize=auto;html=1;strokeColor=#000000;fontColor=#000000;" parent="WIyWlLk6GJQsqaUBKTNV-1" source="eJlzGwfbYKm2t7pgXUtI-50" target="eJlzGwfbYKm2t7pgXUtI-51" edge="1">
          <mxGeometry relative="1" as="geometry" />
        </mxCell>
        <mxCell id="eJlzGwfbYKm2t7pgXUtI-50" value="Sidang dilaksanakan sesuai jadwal" style="rounded=0;whiteSpace=wrap;html=1;fillColor=#3399FF;fontColor=#000000;strokeColor=#000000;" parent="WIyWlLk6GJQsqaUBKTNV-1" vertex="1">
          <mxGeometry x="760" y="310" width="150" height="60" as="geometry" />
        </mxCell>
        <mxCell id="eJlzGwfbYKm2t7pgXUtI-56" style="edgeStyle=orthogonalEdgeStyle;rounded=0;orthogonalLoop=1;jettySize=auto;html=1;strokeColor=#000000;fontColor=#000000;entryX=1;entryY=0.5;entryDx=0;entryDy=0;" parent="WIyWlLk6GJQsqaUBKTNV-1" source="eJlzGwfbYKm2t7pgXUtI-51" target="75-wbaEFGfFQ8TanxGVA-0" edge="1">
          <mxGeometry relative="1" as="geometry">
            <Array as="points">
              <mxPoint x="980" y="480" />
              <mxPoint x="980" y="101" />
            </Array>
            <mxPoint x="946" y="220" as="targetPoint" />
          </mxGeometry>
        </mxCell>
        <mxCell id="eJlzGwfbYKm2t7pgXUtI-58" value="No" style="edgeLabel;html=1;align=center;verticalAlign=middle;resizable=0;points=[];fontColor=#000000;labelBackgroundColor=none;" parent="eJlzGwfbYKm2t7pgXUtI-56" vertex="1" connectable="0">
          <mxGeometry x="-0.8215" y="-2" relative="1" as="geometry">
            <mxPoint x="9" y="-15" as="offset" />
          </mxGeometry>
        </mxCell>
        <mxCell id="eJlzGwfbYKm2t7pgXUtI-61" style="edgeStyle=orthogonalEdgeStyle;rounded=0;orthogonalLoop=1;jettySize=auto;html=1;entryX=0.5;entryY=0;entryDx=0;entryDy=0;strokeColor=#000000;fontColor=#000000;" parent="WIyWlLk6GJQsqaUBKTNV-1" source="eJlzGwfbYKm2t7pgXUtI-51" target="eJlzGwfbYKm2t7pgXUtI-59" edge="1">
          <mxGeometry relative="1" as="geometry" />
        </mxCell>
        <mxCell id="eJlzGwfbYKm2t7pgXUtI-63" value="Yes" style="edgeLabel;html=1;align=center;verticalAlign=middle;resizable=0;points=[];fontColor=#000000;labelBackgroundColor=none;" parent="eJlzGwfbYKm2t7pgXUtI-61" vertex="1" connectable="0">
          <mxGeometry x="-0.2857" y="-1" relative="1" as="geometry">
            <mxPoint x="15" y="10" as="offset" />
          </mxGeometry>
        </mxCell>
        <mxCell id="eJlzGwfbYKm2t7pgXUtI-51" value="Apakah mahasiswa lulus sidang?" style="rhombus;whiteSpace=wrap;html=1;fillColor=#3399FF;fontColor=#000000;strokeColor=#000000;" parent="WIyWlLk6GJQsqaUBKTNV-1" vertex="1">
          <mxGeometry x="785" y="420" width="100" height="120" as="geometry" />
        </mxCell>
        <mxCell id="eJlzGwfbYKm2t7pgXUtI-65" style="edgeStyle=orthogonalEdgeStyle;rounded=0;orthogonalLoop=1;jettySize=auto;html=1;strokeColor=#000000;fontColor=#000000;" parent="WIyWlLk6GJQsqaUBKTNV-1" source="eJlzGwfbYKm2t7pgXUtI-59" target="eJlzGwfbYKm2t7pgXUtI-64" edge="1">
          <mxGeometry relative="1" as="geometry" />
        </mxCell>
        <mxCell id="eJlzGwfbYKm2t7pgXUtI-59" value="Mahasiswa mengumpulkan hardcover skripsi" style="shape=parallelogram;perimeter=parallelogramPerimeter;whiteSpace=wrap;html=1;fixedSize=1;fillColor=#3399FF;fontColor=#000000;strokeColor=#000000;" parent="WIyWlLk6GJQsqaUBKTNV-1" vertex="1">
          <mxGeometry x="767.5" y="610" width="135" height="60" as="geometry" />
        </mxCell>
        <mxCell id="eJlzGwfbYKm2t7pgXUtI-67" style="edgeStyle=orthogonalEdgeStyle;rounded=0;orthogonalLoop=1;jettySize=auto;html=1;strokeColor=#000000;fontColor=#000000;" parent="WIyWlLk6GJQsqaUBKTNV-1" source="eJlzGwfbYKm2t7pgXUtI-64" target="eJlzGwfbYKm2t7pgXUtI-66" edge="1">
          <mxGeometry relative="1" as="geometry" />
        </mxCell>
        <mxCell id="eJlzGwfbYKm2t7pgXUtI-64" value="Pengecekkan hardcover skripsi oleh dosen pembimbing, dosen penguji, dan staff" style="rounded=0;whiteSpace=wrap;html=1;fillColor=#3399FF;fontColor=#000000;strokeColor=#000000;" parent="WIyWlLk6GJQsqaUBKTNV-1" vertex="1">
          <mxGeometry x="763.75" y="730" width="142.5" height="80" as="geometry" />
        </mxCell>
        <mxCell id="eJlzGwfbYKm2t7pgXUtI-68" style="edgeStyle=orthogonalEdgeStyle;rounded=0;orthogonalLoop=1;jettySize=auto;html=1;entryX=1;entryY=0.25;entryDx=0;entryDy=0;strokeColor=#000000;fontColor=#000000;" parent="WIyWlLk6GJQsqaUBKTNV-1" source="eJlzGwfbYKm2t7pgXUtI-66" target="eJlzGwfbYKm2t7pgXUtI-59" edge="1">
          <mxGeometry relative="1" as="geometry">
            <Array as="points">
              <mxPoint x="980" y="935" />
              <mxPoint x="980" y="626" />
            </Array>
          </mxGeometry>
        </mxCell>
        <mxCell id="eJlzGwfbYKm2t7pgXUtI-69" value="No" style="edgeLabel;html=1;align=center;verticalAlign=middle;resizable=0;points=[];fontColor=#000000;labelBackgroundColor=none;" parent="eJlzGwfbYKm2t7pgXUtI-68" vertex="1" connectable="0">
          <mxGeometry x="-0.7659" y="1" relative="1" as="geometry">
            <mxPoint x="-26" y="-11" as="offset" />
          </mxGeometry>
        </mxCell>
        <mxCell id="eJlzGwfbYKm2t7pgXUtI-71" style="edgeStyle=orthogonalEdgeStyle;rounded=0;orthogonalLoop=1;jettySize=auto;html=1;strokeColor=#000000;fontColor=#000000;" parent="WIyWlLk6GJQsqaUBKTNV-1" source="eJlzGwfbYKm2t7pgXUtI-66" target="eJlzGwfbYKm2t7pgXUtI-70" edge="1">
          <mxGeometry relative="1" as="geometry" />
        </mxCell>
        <mxCell id="eJlzGwfbYKm2t7pgXUtI-73" value="Yes" style="edgeLabel;html=1;align=center;verticalAlign=middle;resizable=0;points=[];labelBackgroundColor=none;fontColor=#000000;" parent="eJlzGwfbYKm2t7pgXUtI-71" vertex="1" connectable="0">
          <mxGeometry x="0.2667" y="2" relative="1" as="geometry">
            <mxPoint x="16" y="-8" as="offset" />
          </mxGeometry>
        </mxCell>
        <mxCell id="eJlzGwfbYKm2t7pgXUtI-66" value="Apakah hardcover diterima?" style="rhombus;whiteSpace=wrap;html=1;fillColor=#3399FF;fontColor=#000000;strokeColor=#000000;" parent="WIyWlLk6GJQsqaUBKTNV-1" vertex="1">
          <mxGeometry x="772.5" y="870" width="125" height="130" as="geometry" />
        </mxCell>
        <mxCell id="eJlzGwfbYKm2t7pgXUtI-70" value="End" style="ellipse;whiteSpace=wrap;html=1;fontColor=#000000;labelBackgroundColor=none;fillColor=#3399FF;strokeColor=#000000;" parent="WIyWlLk6GJQsqaUBKTNV-1" vertex="1">
          <mxGeometry x="775" y="1060" width="120" height="80" as="geometry" />
        </mxCell>
        <mxCell id="eJlzGwfbYKm2t7pgXUtI-72" value="Flowchart&amp;nbsp;&lt;div&gt;Bryan Anderson - 2602092895&lt;/div&gt;" style="text;html=1;align=center;verticalAlign=middle;whiteSpace=wrap;rounded=0;fontColor=#000000;" parent="WIyWlLk6GJQsqaUBKTNV-1" vertex="1">
          <mxGeometry x="499" y="-8" width="190" height="30" as="geometry" />
        </mxCell>
        <mxCell id="75-wbaEFGfFQ8TanxGVA-4" style="edgeStyle=orthogonalEdgeStyle;rounded=0;orthogonalLoop=1;jettySize=auto;html=1;entryX=0.5;entryY=0;entryDx=0;entryDy=0;" edge="1" parent="WIyWlLk6GJQsqaUBKTNV-1" source="75-wbaEFGfFQ8TanxGVA-0" target="eJlzGwfbYKm2t7pgXUtI-49">
          <mxGeometry relative="1" as="geometry" />
        </mxCell>
        <mxCell id="75-wbaEFGfFQ8TanxGVA-0" value="Penjadwalan sidang untuk&amp;nbsp;&lt;div&gt;mahasiswa dan dosen penguji oleh staff&lt;/div&gt;" style="shape=parallelogram;perimeter=parallelogramPerimeter;whiteSpace=wrap;html=1;fixedSize=1;fillColor=#3399FF;" vertex="1" parent="WIyWlLk6GJQsqaUBKTNV-1">
          <mxGeometry x="712" y="72" width="246" height="58" as="geometry" />
        </mxCell>
      </root>
    </mxGraphModel>
  </diagram>
</mxfile>
